<svg width="26" height="23" viewBox="0 0 26 23" fill="none" xmlns="http://www.w3.org/2000/svg">
<path d="M19.4296 16.546L15.0546 14.4835C14.8677 14.3959 14.6599 14.3774 14.4627 14.4309C14.2654 14.4844 14.0893 14.6069 13.9608 14.78L12.0233 17.3839C8.98248 15.8069 6.53535 13.115 5.10165 9.77017L7.46888 7.63888C7.62657 7.4978 7.73818 7.30405 7.78681 7.08696C7.83545 6.86987 7.81846 6.64125 7.73842 6.43573L5.86338 1.62315C5.77554 1.4016 5.62016 1.22071 5.42406 1.11168C5.22796 1.00265 5.00341 0.9723 4.78915 1.02587L0.726575 2.05714C0.519997 2.10961 0.335688 2.23756 0.203728 2.4201C0.0717689 2.60263 -4.75872e-05 2.82898 2.36575e-08 3.0622C2.36575e-08 14.0839 8.12123 23 18.1253 23C18.3374 23.0002 18.5433 22.9212 18.7093 22.7761C18.8753 22.6309 18.9917 22.4281 19.0394 22.2008L19.9769 17.732C20.0253 17.4951 19.9971 17.2472 19.8972 17.0307C19.7973 16.8142 19.632 16.6429 19.4296 16.546Z" fill="white"/>
<path d="M19 3.00005H26V7.00005H19V3.00005Z" fill="white"/>
<path d="M14 5.00005L19.25 0.669922V9.33018L14 5.00005Z" fill="white"/>
</svg>
