<svg xmlns="http://www.w3.org/2000/svg" width="17" height="16" viewBox="0 0 17 16"><g><g><path d="M12.943 8a4.095 4.095 0 0 1-4.101 4.102A4.095 4.095 0 0 1 4.74 8a4.095 4.095 0 0 1 4.102-4.102A4.095 4.095 0 0 1 12.943 8zm-1.435 0a2.67 2.67 0 0 0-2.666-2.667A2.67 2.67 0 0 0 6.175 8c0 1.47 1.2 2.667 2.667 2.667A2.672 2.672 0 0 0 11.508 8zm2.56-4.27a.954.954 0 0 1-.957.957.957.957 0 1 1 .957-.957zm2.716 7.569c-.064 1.282-.357 2.417-1.292 3.352-.936.94-2.07 1.232-3.352 1.293-1.32.075-5.28.075-6.6 0-1.281-.065-2.413-.357-3.352-1.293C1.25 13.716.957 12.581.896 11.3c-.075-1.321-.075-5.28 0-6.601.064-1.282.354-2.418 1.292-3.353C3.128.41 4.262.117 5.54.056c1.32-.075 5.28-.075 6.6 0 1.281.064 2.417.357 3.352 1.293.938.935 1.231 2.07 1.292 3.352.075 1.321.075 5.277 0 6.598zM15.399 8c0-1.164.096-3.663-.321-4.716a2.7 2.7 0 0 0-1.521-1.521c-1.05-.414-3.552-.322-4.715-.322-1.164 0-3.662-.096-4.715.322a2.7 2.7 0 0 0-1.521 1.52C2.192 4.334 2.285 6.837 2.285 8c0 1.164-.097 3.663.321 4.716a2.7 2.7 0 0 0 1.52 1.521c1.05.414 3.552.321 4.716.321 1.163 0 3.662.097 4.715-.32a2.7 2.7 0 0 0 1.52-1.522c.418-1.05.322-3.552.322-4.716z"/></g></g></svg>