<svg width="17" height="27" viewBox="0 0 17 27" fill="none" xmlns="http://www.w3.org/2000/svg">
<path d="M8.52275 0.323486C4.66682 0.323486 2.16933 2.02195 0.208536 5.05102C-0.147158 5.6005 -0.0374983 6.35388 0.458677 6.75836L2.5426 8.45714C3.04371 8.86561 3.75669 8.7701 4.149 8.24171C5.35908 6.6119 6.2567 5.67352 8.14686 5.67352C9.63302 5.67352 11.4713 6.7018 11.4713 8.25116C11.4713 9.42242 10.5719 10.0239 9.10448 10.9084C7.39325 11.9399 5.12875 13.2235 5.12875 16.4347V16.943C5.12875 17.6314 5.64782 18.1895 6.28815 18.1895H9.7891C10.4294 18.1895 10.9485 17.6314 10.9485 16.943V16.6432C10.9485 14.4172 17 14.3245 17 8.30086C17 3.76456 12.6232 0.323486 8.52275 0.323486ZM8.03865 19.7195C6.19346 19.7195 4.69228 21.3334 4.69228 23.3171C4.69228 25.3008 6.19346 26.9147 8.03865 26.9147C9.88384 26.9147 11.385 25.3008 11.385 23.3171C11.385 21.3333 9.88384 19.7195 8.03865 19.7195Z" fill="white"/>
</svg>
