<svg width="22" height="25" viewBox="0 0 22 25" fill="none" xmlns="http://www.w3.org/2000/svg">
<path d="M0 22.0477C0 23.2711 1.0558 24.2636 2.35714 24.2636H19.6429C20.9442 24.2636 22 23.2711 22 22.0477V9.4907H0V22.0477ZM15.7143 12.9993C15.7143 12.6946 15.9795 12.4453 16.3036 12.4453H18.2679C18.592 12.4453 18.8571 12.6946 18.8571 12.9993V14.8459C18.8571 15.1506 18.592 15.3999 18.2679 15.3999H16.3036C15.9795 15.3999 15.7143 15.1506 15.7143 14.8459V12.9993ZM15.7143 18.9084C15.7143 18.6037 15.9795 18.3544 16.3036 18.3544H18.2679C18.592 18.3544 18.8571 18.6037 18.8571 18.9084V20.755C18.8571 21.0597 18.592 21.309 18.2679 21.309H16.3036C15.9795 21.309 15.7143 21.0597 15.7143 20.755V18.9084ZM9.42857 12.9993C9.42857 12.6946 9.69375 12.4453 10.0179 12.4453H11.9821C12.3062 12.4453 12.5714 12.6946 12.5714 12.9993V14.8459C12.5714 15.1506 12.3062 15.3999 11.9821 15.3999H10.0179C9.69375 15.3999 9.42857 15.1506 9.42857 14.8459V12.9993ZM9.42857 18.9084C9.42857 18.6037 9.69375 18.3544 10.0179 18.3544H11.9821C12.3062 18.3544 12.5714 18.6037 12.5714 18.9084V20.755C12.5714 21.0597 12.3062 21.309 11.9821 21.309H10.0179C9.69375 21.309 9.42857 21.0597 9.42857 20.755V18.9084ZM3.14286 12.9993C3.14286 12.6946 3.40804 12.4453 3.73214 12.4453H5.69643C6.02054 12.4453 6.28571 12.6946 6.28571 12.9993V14.8459C6.28571 15.1506 6.02054 15.3999 5.69643 15.3999H3.73214C3.40804 15.3999 3.14286 15.1506 3.14286 14.8459V12.9993ZM3.14286 18.9084C3.14286 18.6037 3.40804 18.3544 3.73214 18.3544H5.69643C6.02054 18.3544 6.28571 18.6037 6.28571 18.9084V20.755C6.28571 21.0597 6.02054 21.309 5.69643 21.309H3.73214C3.40804 21.309 3.14286 21.0597 3.14286 20.755V18.9084ZM19.6429 3.58154H17.2857V1.3656C17.2857 0.959344 16.9321 0.626953 16.5 0.626953H14.9286C14.4964 0.626953 14.1429 0.959344 14.1429 1.3656V3.58154H7.85714V1.3656C7.85714 0.959344 7.50357 0.626953 7.07143 0.626953H5.5C5.06786 0.626953 4.71429 0.959344 4.71429 1.3656V3.58154H2.35714C1.0558 3.58154 0 4.57409 0 5.79747V8.01341H22V5.79747C22 4.57409 20.9442 3.58154 19.6429 3.58154Z" fill="white"/>
</svg>
