<?xml version="1.0" encoding="utf-8"?><svg xmlns="http://www.w3.org/2000/svg" xmlns:xlink="http://www.w3.org/1999/xlink"><symbol viewBox="0 0 310 310" id="001-twitter" xmlns="http://www.w3.org/2000/svg"><path d="M302.973 57.388a117.512 117.512 0 01-14.993 5.463 66.276 66.276 0 0013.494-23.73 5 5 0 00-7.313-5.824 117.994 117.994 0 01-34.878 13.783c-12.381-12.098-29.197-18.983-46.581-18.983-36.695 0-66.549 29.853-66.549 66.547 0 2.89.183 5.764.545 8.598C101.163 99.244 58.83 76.863 29.76 41.204a5.001 5.001 0 00-8.196.642c-5.896 10.117-9.013 21.688-9.013 33.461 0 16.035 5.725 31.249 15.838 43.137a56.37 56.37 0 01-8.907-3.977 5 5 0 00-7.427 4.257c-.007.295-.007.59-.007.889 0 23.935 12.882 45.484 32.577 57.229a57.372 57.372 0 01-5.063-.735 4.998 4.998 0 00-5.699 6.437c7.29 22.76 26.059 39.501 48.749 44.605-18.819 11.787-40.34 17.961-62.932 17.961a120.4 120.4 0 01-14.095-.826 5 5 0 00-3.286 9.174c29.023 18.609 62.582 28.445 97.047 28.445 67.754 0 110.139-31.95 133.764-58.753 29.46-33.421 46.356-77.658 46.356-121.367 0-1.826-.028-3.67-.084-5.508 11.623-8.757 21.63-19.355 29.773-31.536a5 5 0 00-6.182-7.351z"/></symbol><symbol viewBox="0 0 330.001 330.001" id="002-internet" xmlns="http://www.w3.org/2000/svg"><path d="M165.001 0C74.02 0 .001 74.018.001 164.997c0 90.983 74.019 165.004 165 165.004 8.284 0 15-6.716 15-15 0-8.284-6.716-15-15-15-74.44 0-135-60.563-135-135.004C30 90.56 90.561 30 165.001 30s135 60.56 135 134.997v37.507c0 12.407-10.096 22.5-22.504 22.5-12.406 0-22.499-10.093-22.499-22.5v-37.507c0-49.626-40.372-90-89.997-90-49.626 0-89.999 40.374-89.999 90 0 49.63 40.373 90.007 89.999 90.007 25.927 0 49.323-11.026 65.762-28.63 8.706 16.978 26.379 28.63 46.734 28.63 28.951 0 52.504-23.551 52.504-52.5v-37.507C330 74.018 255.982 0 165.001 0zm0 225.004c-33.084 0-59.999-26.919-59.999-60.007 0-33.084 26.915-60 59.999-60 33.083 0 59.997 26.916 59.997 60 0 33.088-26.915 60.007-59.997 60.007z"/></symbol><symbol viewBox="0 0 304.36 304.36" id="003-vk" xmlns="http://www.w3.org/2000/svg"><path d="M261.945 175.576c10.096 9.857 20.752 19.131 29.807 29.982 4 4.822 7.787 9.798 10.684 15.394 4.105 7.955.387 16.709-6.746 17.184l-44.34-.02c-11.436.949-20.559-3.655-28.23-11.474-6.139-6.253-11.824-12.908-17.727-19.372-2.42-2.642-4.953-5.128-7.979-7.093-6.053-3.929-11.307-2.726-14.766 3.587-3.523 6.421-4.322 13.531-4.668 20.687-.475 10.441-3.631 13.186-14.119 13.664-22.414 1.057-43.686-2.334-63.447-13.641-17.422-9.968-30.932-24.04-42.691-39.971-22.895-31.021-40.428-65.108-56.186-100.15C-2.01 76.458.584 72.22 9.295 72.07c14.465-.281 28.928-.261 43.41-.02 5.879.086 9.771 3.458 12.041 9.012 7.826 19.243 17.402 37.551 29.422 54.521 3.201 4.518 6.465 9.036 11.113 12.216 5.142 3.521 9.057 2.354 11.476-3.374 1.535-3.632 2.207-7.544 2.553-11.434 1.146-13.383 1.297-26.743-.713-40.079-1.234-8.323-5.922-13.711-14.227-15.286-4.238-.803-3.607-2.38-1.555-4.799 3.564-4.172 6.916-6.769 13.598-6.769h50.111c7.889 1.557 9.641 5.101 10.721 13.039l.043 55.663c-.086 3.073 1.535 12.192 7.07 14.226 4.43 1.448 7.35-2.096 10.008-4.905 11.998-12.734 20.561-27.783 28.211-43.366 3.395-6.852 6.314-13.968 9.143-21.078 2.096-5.276 5.385-7.872 11.328-7.757l48.229.043c1.43 0 2.877.021 4.262.258 8.127 1.385 10.354 4.881 7.844 12.817-3.955 12.451-11.65 22.827-19.174 33.251-8.043 11.129-16.645 21.877-24.621 33.072-7.328 10.223-6.746 15.376 2.357 24.255zm0 0" fill-rule="evenodd" clip-rule="evenodd"/></symbol><symbol viewBox="0 0 15 24" id="arr-l" xmlns="http://www.w3.org/2000/svg"><path d="M14.83 21.17L5.66 12l9.17-9.17L12 0 0 12l12 12z"/></symbol><symbol viewBox="0 0 14 24" id="arr-r" xmlns="http://www.w3.org/2000/svg"><path d="M12.83 21.17L3.66 12l9.17-9.17L10 0-2 12l12 12z"/></symbol><symbol viewBox="0 0 26 23" id="call" xmlns="http://www.w3.org/2000/svg"><path d="M19.43 16.546l-4.375-2.063a.859.859 0 00-.592-.052.932.932 0 00-.502.349l-1.938 2.604c-3.04-1.577-5.488-4.269-6.921-7.614l2.367-2.13a1.04 1.04 0 00.318-.552 1.125 1.125 0 00-.049-.651L5.863 1.623a1.004 1.004 0 00-.439-.511.867.867 0 00-.635-.086L.727 2.057a.932.932 0 00-.523.363A1.098 1.098 0 000 3.062C0 14.084 8.121 23 18.125 23a.885.885 0 00.584-.224c.166-.145.283-.348.33-.575l.938-4.469c.048-.237.02-.485-.08-.701a.993.993 0 00-.467-.485zM19 3h7v4h-7V3z"/><path d="M14 5L19.25.67v8.66L14 5z"/></symbol><symbol viewBox="0 0 515.556 515.556" id="checked" xmlns="http://www.w3.org/2000/svg"><path d="M0 274.226l176.549 176.886L515.556 112.44l-48.67-47.997-290.337 290L47.996 225.891z"/></symbol><symbol viewBox="0 0 17 17" id="clock" xmlns="http://www.w3.org/2000/svg"><path d="M8.5 0A8.499 8.499 0 000 8.5C0 13.196 3.804 17 8.5 17S17 13.196 17 8.5 13.196 0 8.5 0zm1.957 12L7.434 9.801a.414.414 0 01-.168-.332V3.702c0-.227.185-.412.411-.412h1.646c.226 0 .41.185.41.412v4.72l2.177 1.583a.41.41 0 01.09.575l-.967 1.33a.414.414 0 01-.576.09z"/></symbol><symbol viewBox="0 0 329.269 329" id="close" xmlns="http://www.w3.org/2000/svg"><path d="M194.8 164.77L323.013 36.555c8.343-8.34 8.343-21.825 0-30.164-8.34-8.34-21.825-8.34-30.164 0L164.633 134.605 36.422 6.391c-8.344-8.34-21.824-8.34-30.164 0-8.344 8.34-8.344 21.824 0 30.164l128.21 128.215L6.259 292.984c-8.344 8.34-8.344 21.825 0 30.164a21.266 21.266 0 0015.082 6.25c5.46 0 10.922-2.09 15.082-6.25l128.21-128.214 128.216 128.214a21.273 21.273 0 0015.082 6.25c5.46 0 10.922-2.09 15.082-6.25 8.343-8.34 8.343-21.824 0-30.164zm0 0"/></symbol><symbol viewBox="0 0 9 16" id="fb" xmlns="http://www.w3.org/2000/svg"><path d="M8.286 9l.424-2.896H6.057V4.225c0-.792.37-1.564 1.559-1.564h1.206V.196S7.727 0 6.68 0C4.496 0 3.068 1.387 3.068 3.897v2.207H.64V9h2.428v7h2.99V9z"/></symbol><symbol viewBox="0 0 17 16" id="inst" xmlns="http://www.w3.org/2000/svg"><path d="M12.943 8a4.095 4.095 0 01-4.101 4.102A4.095 4.095 0 014.74 8a4.095 4.095 0 014.102-4.102A4.095 4.095 0 0112.943 8zm-1.435 0a2.67 2.67 0 00-2.666-2.667A2.67 2.67 0 006.175 8c0 1.47 1.2 2.667 2.667 2.667A2.672 2.672 0 0011.508 8zm2.56-4.27a.954.954 0 01-.957.957.957.957 0 11.957-.957zm2.716 7.569c-.064 1.282-.357 2.417-1.292 3.352-.936.94-2.07 1.232-3.352 1.293-1.32.075-5.28.075-6.6 0-1.281-.065-2.413-.357-3.352-1.293C1.25 13.716.957 12.581.896 11.3c-.075-1.321-.075-5.28 0-6.601.064-1.282.354-2.418 1.292-3.353C3.128.41 4.262.117 5.54.056c1.32-.075 5.28-.075 6.6 0 1.281.064 2.417.357 3.352 1.293.938.935 1.231 2.07 1.292 3.352.075 1.321.075 5.277 0 6.598zM15.399 8c0-1.164.096-3.663-.321-4.716a2.7 2.7 0 00-1.521-1.521c-1.05-.414-3.552-.322-4.715-.322-1.164 0-3.662-.096-4.715.322a2.7 2.7 0 00-1.521 1.52C2.192 4.334 2.285 6.837 2.285 8c0 1.164-.097 3.663.321 4.716a2.7 2.7 0 001.52 1.521c1.05.414 3.552.321 4.716.321 1.163 0 3.662.097 4.715-.32a2.7 2.7 0 001.52-1.522c.418-1.05.322-3.552.322-4.716z"/></symbol><symbol viewBox="0 0 18 12" id="mail" xmlns="http://www.w3.org/2000/svg"><path d="M9 9C7.56 9 6.12 7.95 5.4 7.5 1.8 5.4.72 4.65 0 4.2v6.3c0 .828.806 1.5 1.8 1.5h14.4c.994 0 1.8-.672 1.8-1.5V4.2c-.72.45-1.8 1.2-5.4 3.3C11.88 7.95 10.44 9 9 9zm7.2-9H1.8C.806 0 0 .672 0 1.5v.75c1.44.9 1.26.9 6.48 4.05.54.3 1.62 1.2 2.52 1.2.9 0 1.98-.9 2.52-1.05C16.74 3.3 16.56 3.3 18 2.4v-.9c0-.828-.806-1.5-1.8-1.5z"/></symbol><symbol viewBox="0 0 9 12" id="pin" xmlns="http://www.w3.org/2000/svg"><path d="M4.038 11.758C.632 6.82 0 6.314 0 4.5a4.5 4.5 0 119 0c0 1.814-.632 2.321-4.038 7.258a.563.563 0 01-.924 0zM4.5 6.375a1.875 1.875 0 100-3.75 1.875 1.875 0 000 3.75z"/></symbol><symbol viewBox="0 0 17 27" id="q" xmlns="http://www.w3.org/2000/svg"><path d="M8.523.323C4.667.323 2.169 2.022.209 5.051c-.356.55-.246 1.303.25 1.707l2.084 1.7c.5.408 1.214.312 1.606-.216 1.21-1.63 2.108-2.568 3.998-2.568 1.486 0 3.324 1.028 3.324 2.577 0 1.171-.9 1.773-2.367 2.657-1.71 1.032-3.975 2.316-3.975 5.527v.508c0 .688.519 1.246 1.16 1.246h3.5c.64 0 1.16-.558 1.16-1.246v-.3c0-2.226 6.051-2.319 6.051-8.342C17 3.765 12.623.323 8.523.323zM8.039 19.72c-1.846 0-3.347 1.614-3.347 3.598 0 1.984 1.501 3.598 3.347 3.598 1.845 0 3.346-1.614 3.346-3.598 0-1.984-1.501-3.598-3.346-3.598z"/></symbol><symbol viewBox="0 0 22 25" id="recept" xmlns="http://www.w3.org/2000/svg"><path d="M0 22.048c0 1.223 1.056 2.216 2.357 2.216h17.286c1.301 0 2.357-.993 2.357-2.216V9.49H0v12.557zm15.714-9.049c0-.304.265-.554.59-.554h1.964c.324 0 .59.25.59.554v1.847c0 .305-.266.554-.59.554h-1.964c-.324 0-.59-.25-.59-.554v-1.847zm0 5.91c0-.305.265-.555.59-.555h1.964c.324 0 .59.25.59.554v1.847c0 .305-.266.554-.59.554h-1.964c-.324 0-.59-.25-.59-.554v-1.847zm-6.285-5.91c0-.304.265-.554.589-.554h1.964c.324 0 .59.25.59.554v1.847c0 .305-.266.554-.59.554h-1.964c-.324 0-.59-.25-.59-.554v-1.847zm0 5.91c0-.305.265-.555.589-.555h1.964c.324 0 .59.25.59.554v1.847c0 .305-.266.554-.59.554h-1.964c-.324 0-.59-.25-.59-.554v-1.847zm-6.286-5.91c0-.304.265-.554.59-.554h1.963c.325 0 .59.25.59.554v1.847c0 .305-.265.554-.59.554H3.732c-.324 0-.59-.25-.59-.554v-1.847zm0 5.91c0-.305.265-.555.59-.555h1.963c.325 0 .59.25.59.554v1.847c0 .305-.265.554-.59.554H3.732c-.324 0-.59-.25-.59-.554v-1.847zm16.5-15.327h-2.357V1.366c0-.407-.354-.739-.786-.739h-1.571c-.433 0-.786.332-.786.739v2.216H7.857V1.366c0-.407-.353-.739-.786-.739H5.5c-.432 0-.786.332-.786.739v2.216H2.357C1.056 3.582 0 4.574 0 5.797v2.216h22V5.797c0-1.223-1.056-2.215-2.357-2.215z"/></symbol><symbol viewBox="0 0 0 0" id="sprite" xmlns="http://www.w3.org/2000/svg"/><symbol viewBox="0 0 24 24" id="star" xmlns="http://www.w3.org/2000/svg"><path d="M23.965 9.243a.703.703 0 00-.567-.478l-7.44-1.081L12.63.942a.703.703 0 00-1.26 0L8.041 7.684l-7.44 1.08a.703.703 0 00-.39 1.2l5.384 5.248-1.27 7.41a.703.703 0 001.02.741L12 19.865l6.654 3.498a.703.703 0 001.02-.74l-1.27-7.41 5.384-5.249a.703.703 0 00.178-.72z"/></symbol><symbol viewBox="0 0 22 25" id="tel" xmlns="http://www.w3.org/2000/svg"><path d="M21.372 17.661l-4.812-2.216a.964.964 0 00-.651-.056 1.021 1.021 0 00-.552.375l-2.132 2.798c-3.344-1.695-6.036-4.587-7.613-8.18l2.604-2.29c.173-.152.296-.36.35-.593a1.182 1.182 0 00-.054-.7L6.45 1.63a1.086 1.086 0 00-.484-.55.974.974 0 00-.698-.092L.799 2.095c-.227.056-.43.194-.575.39-.145.196-.224.44-.224.69 0 11.841 8.933 21.42 19.938 21.42.233 0 .46-.084.642-.24.183-.156.31-.374.363-.618l1.031-4.801a1.199 1.199 0 00-.087-.754 1.08 1.08 0 00-.515-.52z"/></symbol><symbol viewBox="0 0 20 12" id="vk" xmlns="http://www.w3.org/2000/svg"><path d="M19.192.763c.135-.44 0-.763-.65-.763h-2.147c-.547 0-.798.278-.933.587 0 0-1.094 2.57-2.64 4.236-.5.482-.729.637-1.002.637-.135 0-.343-.155-.343-.594V.763c0-.527-.153-.763-.605-.763H7.496c-.343 0-.547.246-.547.475 0 .499.773.615.853 2.021v3.052c0 .668-.124.79-.397.79-.73 0-2.501-2.58-3.551-5.533C3.642.232 3.434 0 2.884 0H.736C.124 0 0 .278 0 .587 0 1.136.73 3.86 3.394 7.46c1.776 2.458 4.277 3.79 6.552 3.79 1.367 0 1.535-.295 1.535-.805 0-2.349-.124-2.57.561-2.57.317 0 .864.155 2.14 1.34 1.459 1.406 1.7 2.035 2.516 2.035h2.147c.613 0 .923-.295.744-.879-.408-1.227-3.168-3.751-3.292-3.92-.317-.394-.226-.57 0-.92.004-.004 2.625-3.562 2.895-4.768z"/></symbol><symbol viewBox="0 0 19 12" id="yt" xmlns="http://www.w3.org/2000/svg"><path d="M18.835 6.012s0 2.795-.377 4.135c-.207.739-.817 1.296-1.592 1.494C15.46 12 9.827 12 9.827 12s-5.633 0-7.038-.359c-.775-.198-1.385-.755-1.593-1.494C.82 8.807.82 6.012.82 6.012s0-2.795.376-4.134c.208-.74.818-1.322 1.593-1.52C4.194 0 9.827 0 9.827 0s5.634 0 7.039.359c.775.197 1.385.78 1.592 1.519.377 1.34.377 4.134.377 4.134zM7.985 8.55l4.708-2.538-4.708-2.537z"/></symbol></svg>