<svg width="22" height="25" viewBox="0 0 22 25" fill="none" xmlns="http://www.w3.org/2000/svg">
<path d="M21.3722 17.6614L16.5597 15.4455C16.3542 15.3513 16.1257 15.3315 15.9087 15.389C15.6917 15.4464 15.4979 15.578 15.3566 15.764L13.2254 18.5616C9.88056 16.8673 7.18876 13.9752 5.61172 10.3816L8.21563 8.09181C8.38909 7.94023 8.51186 7.73207 8.56535 7.49884C8.61885 7.2656 8.60016 7.01998 8.51212 6.79918L6.44961 1.62867C6.35298 1.39064 6.18208 1.19631 5.96637 1.07916C5.75066 0.962019 5.50366 0.929415 5.26797 0.986971L0.799219 2.09494C0.571987 2.15131 0.36925 2.28878 0.224097 2.48489C0.0789445 2.681 -5.2345e-05 2.92418 2.60228e-08 3.17474C2.60228e-08 15.0161 8.93321 24.5954 19.9375 24.5954C20.1708 24.5956 20.3972 24.5108 20.5799 24.3548C20.7625 24.1988 20.8905 23.981 20.943 23.7368L21.9742 18.9356C22.0275 18.6811 21.9965 18.4147 21.8866 18.1821C21.7767 17.9496 21.5948 17.7654 21.3722 17.6614Z" fill="white"/>
</svg>
