<svg xmlns="http://www.w3.org/2000/svg" width="20" height="12" viewBox="0 0 20 12"><g><g><path d="M19.192.763c.135-.44 0-.763-.65-.763h-2.147c-.547 0-.798.278-.933.587 0 0-1.094 2.57-2.64 4.236-.5.482-.729.637-1.002.637-.135 0-.343-.155-.343-.594V.763c0-.527-.153-.763-.605-.763H7.496c-.343 0-.547.246-.547.475 0 .499.773.615.853 2.021v3.052c0 .668-.124.79-.397.79-.73 0-2.501-2.58-3.551-5.533C3.642.232 3.434 0 2.884 0H.736C.124 0 0 .278 0 .587 0 1.136.73 3.86 3.394 7.46c1.776 2.458 4.277 3.79 6.552 3.79 1.367 0 1.535-.295 1.535-.805 0-2.349-.124-2.57.561-2.57.317 0 .864.155 2.14 1.34 1.459 1.406 1.7 2.035 2.516 2.035h2.147c.613 0 .923-.295.744-.879-.408-1.227-3.168-3.751-3.292-3.92-.317-.394-.226-.57 0-.92.004-.004 2.625-3.562 2.895-4.768z"/></g></g></svg>